<?xml version="1.0" encoding="UTF-8"?>
<svg version="1.1" xmlns="http://www.w3.org/2000/svg" width="243" height="241">
<path d="M0 0 C80.19 0 160.38 0 243 0 C243 79.53 243 159.06 243 241 C162.81 241 82.62 241 0 241 C0 161.47 0 81.94 0 0 Z " fill="#F59500" transform="translate(0,0)"/>
<path d="M0 0 C2 3 2 3 1.9375 6.25 C0.9371747 10.2513012 -0.3973121 12.26650213 -3.0390625 15.32421875 C-4.19593269 16.96721097 -4.19593269 16.96721097 -3.80859375 18.98046875 C-2.93384568 21.165226 -1.87484936 22.76586435 -0.4375 24.625 C2 27.78753541 2 27.78753541 2 30 C2.94101563 29.48308594 3.88203125 28.96617188 4.8515625 28.43359375 C6.10892505 27.76737927 7.36676313 27.10206173 8.625 26.4375 C9.55119141 25.92413086 9.55119141 25.92413086 10.49609375 25.40039062 C13.54734074 23.81053035 15.8099867 23.0020456 19.265625 22.96484375 C22.87579172 24.33154972 23.50681078 25.65745168 25.125 29.125 C33.7325212 48.46927132 35.55258015 70.93110431 28 91 C19.63263534 111.09602216 4.13184649 126.64708908 -15.88525391 135.17041016 C-35.0360953 142.6830584 -55.97399786 141.89163846 -75 134.4375 C-92.01187812 126.73436867 -103.56913198 114.7990383 -113 99 C-113.65162109 97.95199219 -113.65162109 97.95199219 -114.31640625 96.8828125 C-123.24618438 81.1243805 -123.58251036 58.87111375 -119.375 41.6875 C-112.45448023 20.22665473 -98.04454131 3.34482649 -78 -7 C-73.40674096 -8.96639521 -68.78877123 -10.58004022 -64 -12 C-63.18402344 -12.24621094 -62.36804688 -12.49242187 -61.52734375 -12.74609375 C-40.84138985 -17.89097079 -17.05085216 -12.43149779 0 0 Z " fill="#405D7D" transform="translate(163,58)"/>
<path d="M0 0 C3.24298429 1.08099476 3.81612526 1.65626616 5.75 4.3125 C6.42289063 5.20388672 6.42289063 5.20388672 7.109375 6.11328125 C8 8 8 8 8.02734375 9.890625 C6.41506149 13.20101443 3.62302996 15.16878151 0.8125 17.4375 C-0.46700727 18.50000416 -1.74428496 19.56519795 -3.01953125 20.6328125 C-3.67775879 21.18356445 -4.33598633 21.73431641 -5.01416016 22.30175781 C-8.22204288 25.04506151 -11.29921524 27.92287233 -14.375 30.8125 C-18.52732903 34.70389032 -22.70267075 38.54320409 -27.01171875 42.26171875 C-29.54052928 44.47256489 -32.01872564 46.73596443 -34.5 49 C-42.54430094 56.32802757 -50.76744859 63.43066891 -59.11279297 70.41308594 C-60.44191186 71.53071502 -61.76601108 72.65432727 -63.08642578 73.78222656 C-65.23523274 75.61686913 -67.39752404 77.43448477 -69.5625 79.25 C-70.24119141 79.83539551 -70.91988281 80.42079102 -71.61914062 81.02392578 C-72.26173828 81.55743652 -72.90433594 82.09094727 -73.56640625 82.640625 C-74.13302979 83.12047852 -74.69965332 83.60033203 -75.28344727 84.09472656 C-77 85 -77 85 -79.078125 84.7956543 C-85.71349288 82.04861874 -91.22021107 70.61854816 -94.0390625 64.37109375 C-94.35617188 63.58863281 -94.67328125 62.80617187 -95 62 C-95.50660156 60.84177734 -95.50660156 60.84177734 -96.0234375 59.66015625 C-96.8645826 57.22416672 -97.25674382 55.56743821 -97 53 C-94.92251265 49.62652525 -92.09440783 47.42597835 -89 45 C-88.12601563 44.27941406 -87.25203125 43.55882812 -86.3515625 42.81640625 C-78.44339563 36.56570449 -69.95283591 31.5911979 -61 27 C-60.3704541 26.67708984 -59.7409082 26.35417969 -59.09228516 26.02148438 C-51.08725333 22.0158585 -42.84117678 18.89507139 -34.35546875 16.078125 C-33.5820665 15.81997513 -32.80866425 15.56182526 -32.01182556 15.29585266 C-28.09511514 13.9922999 -24.17266478 12.71450857 -20.23510742 11.4753418 C-12.96704821 9.12880021 -6.75506602 7.02965811 -1.44970703 1.22485352 C-0.97130371 0.82065186 -0.49290039 0.4164502 0 0 Z " fill="#F59501" transform="translate(150,84)"/>
<path d="M0 0 C2.66433008 1.33216504 2.74447159 2.47151628 3.6875 5.25 C3.95949219 6.01828125 4.23148437 6.7865625 4.51171875 7.578125 C5.10280286 10.50990218 4.99314458 12.17266948 4 15 C1.99609375 17.140625 1.99609375 17.140625 -0.5625 19.25 C-8.85534009 26.13266916 -15.12927595 34.25686303 -21.0625 43.1875 C-21.69736328 44.12932129 -22.33222656 45.07114258 -22.98632812 46.04150391 C-24.99663229 49.02385043 -26.9988255 52.01152145 -29 55 C-31.65912096 58.96347499 -34.32732703 62.92065503 -37 66.875 C-37.59820557 67.77114014 -38.19641113 68.66728027 -38.81274414 69.59057617 C-47.02107401 81.73643053 -47.02107401 81.73643053 -51 85 C-60.46178229 86.59929846 -71.66888722 80.75920534 -79.3125 75.6875 C-80.55106993 74.80471317 -81.78435095 73.91409269 -83 73 C-79.13317159 69.03025221 -75.07310033 65.36544774 -70.875 61.75 C-70.21048828 61.17499756 -69.54597656 60.59999512 -68.86132812 60.00756836 C-65.12731945 56.78892129 -61.34935033 53.64313622 -57.5 50.5625 C-51.53929494 45.74225869 -46.01579595 40.48133288 -40.44140625 35.2265625 C-37.3388417 32.30502955 -34.17312252 29.4733321 -30.94140625 26.6953125 C-28.48290184 24.54844949 -26.089711 22.33462868 -23.6875 20.125 C-19.09368934 15.93259027 -14.36464 11.95809515 -9.52734375 8.05078125 C-6.29598385 5.42873496 -3.1445053 2.72523793 0 0 Z " fill="#F49501" transform="translate(162,103)"/>
<path d="M0 0 C1.9195752 0.00809692 1.9195752 0.00809692 3.87792969 0.01635742 C13.74295398 0.1742028 22.57567467 1.40387716 31.9375 4.4375 C32.93394531 4.74558594 33.93039063 5.05367188 34.95703125 5.37109375 C36.96521224 6.01580931 38.95534911 6.71671786 40.9375 7.4375 C40.9375 8.4275 40.9375 9.4175 40.9375 10.4375 C40.22432617 10.66300537 39.51115234 10.88851074 38.77636719 11.12084961 C12.87738869 19.37069276 -12.40759009 28.62738649 -33.09375 46.85546875 C-35.0625 48.4375 -35.0625 48.4375 -37.0625 48.4375 C-37.48925468 33.31141728 -35.219546 17.86731128 -25.90307617 5.33203125 C-19.65718762 -1.09695073 -8.23744221 -0.06625722 0 0 Z " fill="#F59501" transform="translate(88.0625,76.5625)"/>
<path d="M0 0 C0.98324769 17.72577081 -3.84880726 35.4554599 -14.77734375 49.65234375 C-21.02019682 56.24628873 -30.27087952 58.53322156 -39 60 C-40.99951208 60.04417527 -43.00078951 60.05619083 -45 60 C-43.69138041 56.39603065 -42.11716108 53.52098761 -39.86328125 50.42578125 C-37.22399679 46.73815416 -34.66054446 43.01900665 -32.16796875 39.23046875 C-6.33953186 0 -6.33953186 0 0 0 Z " fill="#F49502" transform="translate(169,128)"/>
<path d="M0 0 C-0.66 2.31 -1.32 4.62 -2 7 C-1.01 7.66 -0.02 8.32 1 9 C-2 10 -2 10 -5 10 C-4.05125 10.53625 -3.1025 11.0725 -2.125 11.625 C1.36739592 14.2792209 2.04735876 15.80837855 3 20 C3.99 20 4.98 20 6 20 C6 21.65 6 23.3 6 25 C4.515 25.495 4.515 25.495 3 26 C2.525625 25.401875 2.05125 24.80375 1.5625 24.1875 C-1.21545991 21.81607081 -3.63270402 21.08201784 -7.08984375 20.0546875 C-11.72901908 18.37337563 -16.04337368 16.05646336 -20.41503906 13.78027344 C-27.43656567 10.15526966 -32.95740165 8.7380026 -40.75390625 11.171875 C-42.02855144 11.68540112 -43.29814131 12.21164461 -44.5625 12.75 C-45.51286133 13.12898438 -45.51286133 13.12898438 -46.48242188 13.515625 C-50.68540562 15.24702922 -54.41160927 17.19121342 -58 20 C-58 20.99 -58 21.98 -58 23 C-58.99 23 -59.98 23 -61 23 C-61.99 21.02 -62.98 19.04 -64 17 C-62.33333333 15.33333333 -60.66666667 13.66666667 -59 12 C-58.278125 11.236875 -57.55625 10.47375 -56.8125 9.6875 C-55 8 -55 8 -53 8 C-53 7.01 -53 6.02 -53 5 C-35.36428731 -1.65786272 -18.65590489 -4.60233777 0 0 Z " fill="#3E5C7E" transform="translate(138,46)"/>
<path d="M0 0 C10.56187767 0.89189189 10.56187767 0.89189189 15 3 C16.0625 4.9375 16.0625 4.9375 16 7 C14.5625 8.5625 14.5625 8.5625 13 10 C13 10.99 13 11.98 13 13 C14.32 13.33 15.64 13.66 17 14 C13.82988851 15.68871126 10.62264266 16.88007985 7.22265625 18.03125 C-13.02644655 24.99642764 -32.32435779 32.70131785 -50 45 C-52 41.25 -52 41.25 -52 39 C-53.65 39 -55.3 39 -57 39 C-53.82757624 35.51347488 -50.28203393 33.12030596 -46.25 30.75 C-45.59169189 30.36086426 -44.93338379 29.97172852 -44.25512695 29.57080078 C-26.44706138 19.18469369 -7.73743267 11.83518105 12 6 C9.65085508 3.65085508 8.04320554 3.26859643 4.875 2.375 C3.96492188 2.11460938 3.05484375 1.85421875 2.1171875 1.5859375 C1.41851562 1.39257812 0.71984375 1.19921875 0 1 C0 0.67 0 0.34 0 0 Z " fill="#425D7D" transform="translate(117,80)"/>
<path d="M0 0 C6.54618253 3.65583357 12.22119656 7.89317745 17.54760742 13.19140625 C16.88760742 14.51140625 16.22760742 15.83140625 15.54760742 17.19140625 C11.54405046 15.90031835 7.68079836 14.42926598 3.79760742 12.81640625 C-9.82136469 7.531432 -24.37131934 4.97454635 -38.95239258 5.12890625 C-39.77481445 5.13341797 -40.59723633 5.13792969 -41.44458008 5.14257812 C-43.44721654 5.15422136 -45.44981484 5.17215069 -47.45239258 5.19140625 C-46.39637541 1.95200224 -45.37970099 1.14723213 -42.40551758 -0.66015625 C-41.1771756 -1.26373808 -39.94248675 -1.85454151 -38.70239258 -2.43359375 C-38.09395508 -2.73265625 -37.48551758 -3.03171875 -36.85864258 -3.33984375 C-22.8066135 -10.12565266 -13.29325025 -7.14979172 0 0 Z " fill="#F49502" transform="translate(126.452392578125,62.80859375)"/>
<path d="M0 0 C6 14.47572816 6 14.47572816 6 22 C2.7 21.67 -0.6 21.34 -4 21 C-4.86762314 18.75438718 -5.7192103 16.50473745 -6.5625 14.25 C-6.80935547 13.61578125 -7.05621094 12.9815625 -7.31054688 12.328125 C-8.29290175 9.67161604 -9.04291924 7.50493218 -8.80078125 4.65625 C-7.05377379 1.04292726 -3.77829931 0 0 0 Z " fill="#F39504" transform="translate(180,92)"/>
<path d="M0 0 C2.33294775 -0.04241723 4.66702567 -0.04092937 7 0 C8 1 8 1 8.16796875 4.10546875 C7.74396396 13.93646351 4.40016892 24.73443532 -1 33 C-1.99 33.495 -1.99 33.495 -3 34 C-2.85704109 32.60386935 -2.71048442 31.20810692 -2.5625 29.8125 C-2.48128906 29.03519531 -2.40007812 28.25789063 -2.31640625 27.45703125 C-2 25 -2 25 -1.5 22.65039062 C-1.02121147 20.11243736 -0.7999939 17.71415054 -0.68359375 15.13671875 C-0.64169922 14.25048828 -0.59980469 13.36425781 -0.55664062 12.45117188 C-0.51732422 11.53916016 -0.47800781 10.62714844 -0.4375 9.6875 C-0.39431641 8.75615234 -0.35113281 7.82480469 -0.30664062 6.86523438 C-0.20102775 4.57695546 -0.09892248 2.28857628 0 0 Z " fill="#F39504" transform="translate(178,123)"/>
<path d="M0 0 C8.23203632 1.84734673 15.74212393 4.64284697 23 9 C23.33 9.66 23.66 10.32 24 11 C23.01 12.32 22.02 13.64 21 15 C16.89982348 14.41004654 14.30463959 12.21942284 11.0625 9.75 C10.04285156 8.98171875 9.02320313 8.2134375 7.97265625 7.421875 C5.09661422 5.07871329 2.56801274 2.66732815 0 0 Z " fill="#F19506" transform="translate(131,54)"/>
<path d="M0 0 C10.56187767 0.89189189 10.56187767 0.89189189 15 3 C15.875 5.125 15.875 5.125 16 7 C12.07606624 10.68611959 9.31635122 11.52532578 4 12 C2.63875 12.3403125 2.63875 12.3403125 1.25 12.6875 C-1 13 -1 13 -4 11 C1.28 9.35 6.56 7.7 12 6 C9.65085508 3.65085508 8.04320554 3.26859643 4.875 2.375 C3.96492188 2.11460938 3.05484375 1.85421875 2.1171875 1.5859375 C1.41851562 1.39257812 0.71984375 1.19921875 0 1 C0 0.67 0 0.34 0 0 Z " fill="#506378" transform="translate(117,80)"/>
<path d="M0 0 C1 2 1 2 0.3125 4.25 C-1.67614051 8.41667534 -4.18159776 12.01310319 -7.125 15.5625 C-8.98723048 17.98339963 -10.01446896 20.12553448 -11 23 C-11.66 21.68 -12.32 20.36 -13 19 C-8.71 12.73 -4.42 6.46 0 0 Z " fill="#4D6277" transform="translate(145,139)"/>
<path d="M0 0 C0.33 0.66 0.66 1.32 1 2 C-0.95429123 6.23429766 -3.09284453 7.67431222 -7 10 C-7.9084362 11.01263918 -8.78261048 12.05678919 -9.625 13.125 C-12 16 -12 16 -15 17 C-15 14 -15 14 -13.62304688 12.37426758 C-12.99462891 11.80345459 -12.36621094 11.2326416 -11.71875 10.64453125 C-11.04199219 10.02255859 -10.36523438 9.40058594 -9.66796875 8.75976562 C-8.95253906 8.11716797 -8.23710937 7.47457031 -7.5 6.8125 C-6.78457031 6.15830078 -6.06914062 5.50410156 -5.33203125 4.83007812 C-3.56116095 3.21268325 -1.78374982 1.60316097 0 0 Z " fill="#4E637A" transform="translate(146,104)"/>
<path d="M0 0 C0 0.33 0 0.66 0 1 C-1.07378906 1.04898438 -2.14757812 1.09796875 -3.25390625 1.1484375 C-4.69012642 1.22353398 -6.12632319 1.29907876 -7.5625 1.375 C-8.26697266 1.4059375 -8.97144531 1.436875 -9.69726562 1.46875 C-14.39913691 1.72876132 -18.46426491 2.65607849 -23 4 C-25.1392357 4.26772017 -27.28645969 4.47998605 -29.4375 4.625 C-30.48808594 4.69976562 -31.53867188 4.77453125 -32.62109375 4.8515625 C-33.40613281 4.90054688 -34.19117187 4.94953125 -35 5 C-25.1389216 -1.57405227 -11.35116725 -0.34748471 0 0 Z " fill="#5D6D7B" transform="translate(127,44)"/>
<path d="M0 0 C0.99 0.33 1.98 0.66 3 1 C2.01 1.33 1.02 1.66 0 2 C-0.33 2.99 -0.66 3.98 -1 5 C-1.99 5.33 -2.98 5.66 -4 6 C-4.928125 6.99 -4.928125 6.99 -5.875 8 C-8.28751935 10.27060644 -9.76077175 10.64008575 -13 11 C-10.13279564 7.95359537 -7.16064593 5.21956911 -3.875 2.625 C-3.21242188 2.10164062 -2.54984375 1.57828125 -1.8671875 1.0390625 C-1.25101563 0.69617188 -0.63484375 0.35328125 0 0 Z " fill="#4F6378" transform="translate(88,156)"/>
<path d="M0 0 C0 0.66 0 1.32 0 2 C-0.66 2 -1.32 2 -2 2 C-2.268125 2.556875 -2.53625 3.11375 -2.8125 3.6875 C-4.10122647 6.19712523 -5.52926478 8.59334236 -7 11 C-8.27115705 7.18652885 -7.54905091 5.64026964 -6 2 C-3 0 -3 0 0 0 Z " fill="#4E6378" transform="translate(66,78)"/>
<path d="M0 0 C-1.41167747 5.26170694 -3.74850232 8.72171358 -7 13 C-7.5859375 11.125 -7.5859375 11.125 -8 9 C-6.625 7 -6.625 7 -5 5 C-4.65772583 3.66893378 -4.32248257 2.33599921 -4 1 C-2 0 -2 0 0 0 Z " fill="#4D6478" transform="translate(135,169)"/>
<path d="M0 0 C0.77734375 1.671875 0.77734375 1.671875 1 4 C-0.87109375 6.578125 -0.87109375 6.578125 -3.4375 9.25 C-4.70400391 10.58804688 -4.70400391 10.58804688 -5.99609375 11.953125 C-6.65738281 12.62859375 -7.31867188 13.3040625 -8 14 C-8.66 13.67 -9.32 13.34 -10 13 C-9.16855469 11.96939453 -9.16855469 11.96939453 -8.3203125 10.91796875 C-7.59585938 10.01691406 -6.87140625 9.11585938 -6.125 8.1875 C-5.40570313 7.29417969 -4.68640625 6.40085938 -3.9453125 5.48046875 C-1.92059294 2.96429047 -1.92059294 2.96429047 0 0 Z " fill="#526679" transform="translate(122,173)"/>
<path d="M0 0 C-6.93 2.97 -6.93 2.97 -14 6 C-14 5.01 -14 4.02 -14 3 C-12.42274653 2.29866401 -10.83788667 1.614417 -9.25 0.9375 C-7.92742187 0.36322266 -7.92742187 0.36322266 -6.578125 -0.22265625 C-4 -1 -4 -1 0 0 Z " fill="#50657A" transform="translate(104,105)"/>
<path d="M0 0 C0 0.66 0 1.32 0 2 C-3.96 3.98 -3.96 3.98 -8 6 C-8.66 5.34 -9.32 4.68 -10 4 C-6.58908673 0.88145073 -4.68377325 -0.53528837 0 0 Z " fill="#4C6378" transform="translate(80,115)"/>
<path d="M0 0 C0.99 0 1.98 0 3 0 C1.54955729 4.10958767 -0.51110752 7.43258745 -3 11 C-3.33 9.68 -3.66 8.36 -4 7 C-3.34 7 -2.68 7 -2 7 C-1.34 4.69 -0.68 2.38 0 0 Z " fill="#4A627A" transform="translate(143,153)"/>
<path d="M0 0 C4.92307692 4.30769231 4.92307692 4.30769231 5.3125 7.8125 C5.209375 8.534375 5.10625 9.25625 5 10 C1.91910327 7.22719294 0.31224548 4.93673644 -1 1 C-0.67 0.67 -0.34 0.34 0 0 Z " fill="#4C6377" transform="translate(53,158)"/>
<path d="M0 0 C0.33 0 0.66 0 1 0 C1.1949107 4.19058012 0.97459054 7.25867056 -1 11 C-1.99 11.66 -2.98 12.32 -4 13 C-3.52140759 11.39566191 -3.04210442 9.79153584 -2.5625 8.1875 C-2.29566406 7.29417969 -2.02882812 6.40085938 -1.75390625 5.48046875 C-1.19612127 3.64526945 -0.60655425 1.81966274 0 0 Z " fill="#506479" transform="translate(183,140)"/>
<path d="M0 0 C1.62723299 0.45034123 3.25173664 0.91055354 4.875 1.375 C5.77992188 1.63023438 6.68484375 1.88546875 7.6171875 2.1484375 C10 3 10 3 12 5 C10.56163249 4.88541307 9.12429034 4.75790884 7.6875 4.625 C6.88699219 4.55539063 6.08648437 4.48578125 5.26171875 4.4140625 C3 4 3 4 0 2 C0 1.34 0 0.68 0 0 Z " fill="#576A7C" transform="translate(124,73)"/>
<path d="M0 0 C-7.5 5 -7.5 5 -10 5 C-10 4.01 -10 3.02 -10 2 C-6.3558226 -0.4294516 -4.28758728 -0.16179575 0 0 Z " fill="#4E6477" transform="translate(93,58)"/>
<path d="M0 0 C0.66 0.66 1.32 1.32 2 2 C0.02 4.64 -1.96 7.28 -4 10 C-4.66 9.01 -5.32 8.02 -6 7 C-5.34 7 -4.68 7 -4 7 C-4 6.34 -4 5.68 -4 5 C-3.34 5 -2.68 5 -2 5 C-1.34 3.35 -0.68 1.7 0 0 Z " fill="#506478" transform="translate(180,163)"/>
<path d="M0 0 C0 3.90838866 -1.50567876 5.11594107 -4 8 C-4.99 7.67 -5.98 7.34 -7 7 C-4.66666667 4.66666667 -2.33333333 2.33333333 0 0 Z " fill="#506378" transform="translate(105,141)"/>
<path d="M0 0 C1.70884005 1.62339805 3.37446717 3.29319053 5 5 C5 5.66 5 6.32 5 7 C3.68 7 2.36 7 1 7 C0.67 4.69 0.34 2.38 0 0 Z " fill="#4F6476" transform="translate(158,78)"/>
<path d="M0 0 C0.99 0 1.98 0 3 0 C3 2 3 2 1.125 4 C0.42375 4.66 -0.2775 5.32 -1 6 C-1.66 6.66 -2.32 7.32 -3 8 C-3.33 6.68 -3.66 5.36 -4 4 C-3.01 3.67 -2.02 3.34 -1 3 C-0.67 2.01 -0.34 1.02 0 0 Z " fill="#4B6379" transform="translate(81,170)"/>
<path d="M0 0 C0.99 0.33 1.98 0.66 3 1 C0.525 4.465 0.525 4.465 -2 8 C-2.33 6.68 -2.66 5.36 -3 4 C-1.5625 1.75 -1.5625 1.75 0 0 Z " fill="#506579" transform="translate(150,144)"/>
<path d="M0 0 C0.6875 1.8125 0.6875 1.8125 1 4 C-0.1875 5.8125 -0.1875 5.8125 -2 7 C-4.1875 6.6875 -4.1875 6.6875 -6 6 C-5.195625 5.38125 -4.39125 4.7625 -3.5625 4.125 C-0.96125481 2.25835959 -0.96125481 2.25835959 0 0 Z " fill="#546980" transform="translate(158,93)"/>
<path d="M0 0 C0.99 0.33 1.98 0.66 3 1 C0.03 3.475 0.03 3.475 -3 6 C-3 4.68 -3 3.36 -3 2 C-2.01 2 -1.02 2 0 2 C0 1.34 0 0.68 0 0 Z " fill="#51657C" transform="translate(90,163)"/>
<path d="M0 0 C0.33 0 0.66 0 1 0 C1 2.31 1 4.62 1 7 C-0.98 7.99 -0.98 7.99 -3 9 C-2.01 6.03 -1.02 3.06 0 0 Z " fill="#556679" transform="translate(165,155)"/>
</svg>
